# xmcd CD database file
#
# Track frame offsets:
#	150
#	23642
#	38825
#	53617
#	67412
#	82797
#	111372
#	127015
#	138690
#	163022
#	183212
#	199230
#	219995
#	240077
#	261967
#	277025
#	298327
#
# Disc length: 4202 seconds
#
# Revision: 0
# Processed by: cddbd v1.5.1PL0 Copyright (c) Steve Scherf et al.
# Submitted via: CDex 1.51
#
DISCID=01106811
DTITLE=John Grenell - Windstar - Aotearoa
DYEAR=1991
DGENRE=Country
TTITLE0=World rider (Silver stallion)
TTITLE1=Whispering snowgrass (Whispering Jesse)
TTITLE2=Goodbye Money Mountain
TTITLE3=Plains song (Canterbury winds)
TTITLE4=I've been everywhere
TTITLE5=Trying to hold the wind up, with a sail
TTITLE6=Blue smoke
TTITLE7=Come on home boy
TTITLE8=Windstar - Aotearoa
TTITLE9=Rakaia River waltz (River song)
TTITLE10=Glendhu Bay
TTITLE11=Soul of Southland (Taka Timu memories)
TTITLE12=Quiet faith of man
TTITLE13=Dance by the light of the moon
TTITLE14=Spirit song
TTITLE15=Phoenix
TTITLE16=I had an old song
EXTD=YEAR: 1991
EXTT0=
EXTT1=
EXTT2=
EXTT3=
EXTT4=
EXTT5=
EXTT6=
EXTT7=
EXTT8=
EXTT9=
EXTT10=
EXTT11=
EXTT12=
EXTT13=
EXTT14=
EXTT15=
EXTT16=
PLAYORDER=
